<svg xmlns="http://www.w3.org/2000/svg" viewBox="0 0 512 512"><path d="M465.136 223.25H46.864c-20.186 0-35.167-18.713-30.749-38.41l6.531-29.116C36.67 93.199 92.18 48.76 156.259 48.76h199.483c64.079 0 119.589 44.438 133.613 106.964l6.531 29.116c4.417 19.695-10.564 38.41-30.75 38.41z" fill="#f3c97f"/><g fill="#fff"><ellipse cx="168.36" cy="144.831" rx="32.34" ry="25.751"/><ellipse cx="343.64" cy="144.831" rx="32.34" ry="25.751"/></g><path d="M163.557 48.76h-7.299c-64.079 0-119.589 44.438-133.613 106.964l-6.531 29.116c-4.418 19.696 10.563 38.41 30.749 38.41h149.033c-61.148-43.508-43.639-136.585-32.339-174.49z" opacity=".15" fill="#c85412"/><path d="M296.738 372.514H61.585c-6.097 0-11.039-4.942-11.039-11.039v-20.348c0-6.096 4.942-11.039 11.039-11.039h235.152v42.426h.001z" fill="#dd6a56"/><path d="M281.865 372.514h168.549c6.096 0 11.039-4.942 11.039-11.039v-20.348c0-6.096-4.942-11.039-11.039-11.039H281.865c-6.096 0-11.039 4.942-11.039 11.039v20.348c.001 6.098 4.943 11.039 11.039 11.039z" fill="#ea5e57"/><path d="M476.828 463.243H35.172c-15.283 0-27.672-12.389-27.672-27.672v-35.384c0-15.283 12.389-27.673 27.672-27.673h441.655c15.283 0 27.672 12.389 27.672 27.673v35.384c.001 15.282-12.388 27.672-27.671 27.672z" fill="#f3c97f"/><path d="M468.627 250.853H43.373c-16.848 0-30.505 13.658-30.505 30.505v18.226c0 16.848 13.657 30.505 30.505 30.505h425.254c16.848 0 30.505-13.658 30.505-30.505v-18.226c0-16.849-13.657-30.505-30.505-30.505z" fill="#aa8769"/><path d="M43.373 250.853c-16.847 0-30.505 13.658-30.505 30.505v18.226c0 16.847 13.658 30.505 30.505 30.505h180.102c-32.55-14.153-31.236-55.406-22.773-79.236H43.373z" opacity=".1"/><g opacity=".1"><circle cx="50.42" cy="292.822" r="7.347"/><circle cx="158.25" cy="306.941" r="7.347"/><circle cx="264.98" cy="299.202" r="7.347"/><circle cx="373.49" cy="307.512" r="7.347"/><circle cx="459.68" cy="292.822" r="7.347"/></g><path d="M70.521 280.551c16.296 18.515 45.146 18.515 61.442 0 11.068-12.575 30.661-12.575 41.729 0 16.296 18.515 45.146 18.515 61.442 0 11.068-12.575 30.661-12.575 41.729 0 16.296 18.515 45.146 18.515 61.442 0 11.068-12.575 30.661-12.575 41.729 0 16.296 18.515 45.146 18.515 61.442 0a83.674 83.674 0 0 0 20.865-55.285v-2.018H49.657v2.018a83.678 83.678 0 0 0 20.864 55.285z" fill="#8cd4a2"/><path d="M49.657 225.267a83.678 83.678 0 0 0 20.865 55.285c12.521 14.225 32.447 17.508 48.402 9.874-7.966-9.605-13.651-23.928-16.389-35.951-1.632-7.168 3.772-14.004 11.124-14.004h347.29a83.663 83.663 0 0 0 1.396-15.203v-2.018H49.657v2.017z" opacity=".1"/><path d="M118.017 123.83a7.5 7.5 0 0 1-7.5-7.5v-12.682a7.5 7.5 0 0 1 15 0v12.682a7.5 7.5 0 0 1-7.5 7.5zm81.967 73.985a7.5 7.5 0 0 1-7.5-7.5v-12.682a7.5 7.5 0 0 1 15 0v12.682a7.5 7.5 0 0 1-7.5 7.5zM82.304 183.54a7.5 7.5 0 0 1-7.5-7.5v-12.682a7.5 7.5 0 0 1 15 0v12.682a7.5 7.5 0 0 1-7.5 7.5zm311.678-59.71a7.5 7.5 0 0 1-7.5-7.5v-12.682c0-4.142 3.357-7.5 7.5-7.5s7.5 3.358 7.5 7.5v12.682a7.5 7.5 0 0 1-7.5 7.5zm-81.966 73.985a7.5 7.5 0 0 1-7.5-7.5v-12.682c0-4.142 3.357-7.5 7.5-7.5s7.5 3.358 7.5 7.5v12.682a7.5 7.5 0 0 1-7.5 7.5zm117.68-14.275a7.5 7.5 0 0 1-7.5-7.5v-12.682c0-4.142 3.357-7.5 7.5-7.5s7.5 3.358 7.5 7.5v12.682a7.5 7.5 0 0 1-7.5 7.5z" fill="#a15838"/><path d="M35.172 372.514c-15.283 0-27.672 12.389-27.672 27.672v35.384c0 15.283 12.389 27.673 27.672 27.673h179.141c-41.63-22.593-45.283-64.21-38.932-90.729H35.172z" opacity=".15" fill="#c85412"/><path d="M266.672 129.875A14.156 14.156 0 0 1 256 134.741a14.158 14.158 0 0 1-10.673-4.866 7.498 7.498 0 0 0-10.581-.726 7.5 7.5 0 0 0-.726 10.582 29.154 29.154 0 0 0 21.981 10.01 29.154 29.154 0 0 0 21.98-10.01 7.5 7.5 0 0 0-.727-10.582 7.502 7.502 0 0 0-10.582.726zm-102.355-13.062a7.5 7.5 0 0 0 15 0c0-4.351 3.54-7.891 7.892-7.891s7.892 3.54 7.892 7.891a7.5 7.5 0 0 0 15 0c0-12.622-10.269-22.891-22.892-22.891s-22.892 10.27-22.892 22.891zm312.51 248.201h-8.222c.223-1.147.348-2.328.348-3.539v-20.349c0-1.211-.125-2.392-.348-3.539h.022c20.956 0 38.005-17.049 38.005-38.005v-18.227c0-20.956-17.049-38.005-38.005-38.005h-.616a91.222 91.222 0 0 0 1.665-12.867c10.16-1.174 19.428-6.263 25.916-14.368 7.444-9.299 10.218-21.297 7.611-32.92l-6.53-29.116a144.313 144.313 0 0 0-15.139-39.392 7.5 7.5 0 0 0-13.063 7.373 129.339 129.339 0 0 1 13.564 35.302l6.53 29.116c1.604 7.154-.103 14.539-4.685 20.262s-11.414 9.006-18.746 9.006H46.864a23.899 23.899 0 0 1-18.746-9.006 23.894 23.894 0 0 1-4.685-20.262l6.531-29.116c6.411-28.584 22.536-54.408 45.405-72.716 22.868-18.307 51.596-28.39 80.89-28.39h199.482c34.091 0 66.281 13.152 90.642 37.034a7.5 7.5 0 1 0 10.5-10.711c-27.181-26.647-63.101-41.322-101.142-41.322H156.259c-32.689 0-64.746 11.251-90.264 31.68-25.519 20.429-43.513 49.246-50.667 81.142l-6.531 29.116c-2.607 11.622.168 23.621 7.611 32.92 6.488 8.105 15.756 13.194 25.916 14.368.249 4.343.81 8.64 1.665 12.867h-.616c-20.956 0-38.005 17.049-38.005 38.005v18.227c0 20.956 17.049 38.005 38.005 38.005h.022a18.513 18.513 0 0 0-.348 3.539v20.349c0 1.211.125 2.392.348 3.539h-8.222C15.778 365.014 0 380.792 0 400.186v35.384c0 19.394 15.778 35.172 35.172 35.172h56.336a7.5 7.5 0 0 0 0-15H35.172C24.049 455.742 15 446.693 15 435.57v-35.384c0-11.123 9.049-20.172 20.172-20.172h441.655c11.123 0 20.173 9.049 20.173 20.172v35.384c0 11.123-9.05 20.172-20.173 20.172H130.305a7.5 7.5 0 0 0 0 15h346.522c19.395 0 35.173-15.778 35.173-35.172v-35.384c0-19.394-15.778-35.172-35.173-35.172zm-22.2-134.264a76.121 76.121 0 0 1-3.423 17.762c-.029.088-.055.178-.081.267a76.138 76.138 0 0 1-15.274 26.818 33.436 33.436 0 0 1-25.091 11.341 33.437 33.437 0 0 1-25.092-11.341 35.3 35.3 0 0 0-26.493-11.976h-.001a35.306 35.306 0 0 0-26.495 11.976c-6.344 7.207-15.489 11.341-25.091 11.341s-18.747-4.134-25.092-11.341A35.302 35.302 0 0 0 256 263.621c-.001 0 0 0 0 0a35.31 35.31 0 0 0-26.495 11.976c-6.344 7.207-15.489 11.341-25.091 11.341s-18.747-4.134-25.091-11.341a35.304 35.304 0 0 0-26.495-11.976 35.304 35.304 0 0 0-26.494 11.976c-6.344 7.207-15.489 11.341-25.091 11.341s-18.748-4.134-25.091-11.341a76.135 76.135 0 0 1-15.278-26.828 5.528 5.528 0 0 0-.076-.25 76.12 76.12 0 0 1-3.425-17.769h397.254zM43.373 322.589c-12.685 0-23.005-10.32-23.005-23.005v-18.227c0-12.685 10.32-23.005 23.005-23.005h5.013a91.12 91.12 0 0 0 16.506 27.154c9.191 10.442 22.44 16.431 36.351 16.431s27.16-5.989 36.351-16.431a20.302 20.302 0 0 1 15.234-6.886c5.83 0 11.383 2.51 15.235 6.886 9.191 10.442 22.44 16.431 36.351 16.431s27.16-5.989 36.351-16.431a20.299 20.299 0 0 1 30.469 0 48.439 48.439 0 0 0 36.353 16.431 48.439 48.439 0 0 0 36.35-16.431c3.853-4.376 9.405-6.887 15.235-6.887s11.383 2.51 15.234 6.886a48.438 48.438 0 0 0 36.352 16.431c13.91 0 27.16-5.989 36.351-16.431a91.137 91.137 0 0 0 16.506-27.155h5.013c12.684 0 23.005 10.32 23.005 23.005v18.227c0 12.685-10.32 23.005-23.005 23.005H43.373v.002zm220.302 42.425H61.585a3.542 3.542 0 0 1-3.538-3.539v-20.349a3.543 3.543 0 0 1 3.538-3.539h202.089a18.513 18.513 0 0 0-.348 3.539v20.349c.001 1.211.126 2.392.349 3.539zm190.278-3.539a3.543 3.543 0 0 1-3.538 3.539h-168.55a3.542 3.542 0 0 1-3.538-3.539v-20.349a3.543 3.543 0 0 1 3.538-3.539h168.55a3.542 3.542 0 0 1 3.538 3.539v20.349zM301.9 116.813c0 4.142 3.357 7.5 7.5 7.5s7.5-3.358 7.5-7.5c0-4.351 3.54-7.891 7.891-7.891 4.352 0 7.892 3.54 7.892 7.891 0 4.142 3.357 7.5 7.5 7.5s7.5-3.358 7.5-7.5c0-12.622-10.27-22.891-22.892-22.891-12.622.001-22.891 10.27-22.891 22.891z"/></svg>