<svg data-name="007-plus" xmlns="http://www.w3.org/2000/svg" viewBox="0 0 100.722 100.723"><path data-name="Tracé 50" d="M13.6 61.807h25.315v25.315a11.447 11.447 0 0 0 22.892 0V13.6a11.447 11.447 0 0 0-22.892 0v25.315H13.6a11.447 11.447 0 0 0 0 22.892z" fill="#fff"/><path data-name="Tracé 51" d="M87.122 38.915H61.806V13.6a11.446 11.446 0 0 0-22.891 0v73.522a11.447 11.447 0 0 0 22.892 0V61.807h25.315a11.447 11.447 0 0 0 0-22.892z" fill="#a4dbb5"/><path data-name="Tracé 52" d="M80.255 38.915H54.939V13.6c0-6.221-.646-11.311-6.867-11.311A11.46 11.46 0 0 0 36.626 13.6v25.315H20.602a11.447 11.447 0 0 0 0 22.892h16.024v25.315a11.46 11.46 0 0 0 11.446 11.311c6.221 0 6.867-5.09 6.867-11.311V61.807h25.315a11.447 11.447 0 0 0 0-22.892z" fill="#8cd4a2"/><path data-name="Tracé 53" d="M50.361 100.722a13.683 13.683 0 0 1-13.735-13.6V64.1H13.599a13.736 13.736 0 0 1 0-27.47h23.027V13.6a13.736 13.736 0 0 1 27.47 0v23.026h23.026a13.736 13.736 0 0 1 0 27.47H64.099v23.025a13.683 13.683 0 0 1-13.738 13.601zM13.599 41.2a9.158 9.158 0 0 0 0 18.313h25.316a2.288 2.288 0 0 1 2.289 2.289v25.319a9.158 9.158 0 0 0 18.313 0V61.807a2.288 2.288 0 0 1 2.289-2.289h25.315a9.158 9.158 0 0 0 0-18.313H61.807a2.288 2.288 0 0 1-2.289-2.289V13.6a9.158 9.158 0 0 0-18.313 0v25.315a2.288 2.288 0 0 1-2.289 2.285H13.599z" fill="#7dbd90"/></svg>