<svg id="_009-meat" data-name="009-meat" xmlns="http://www.w3.org/2000/svg" viewBox="0 0 100.723 84.002"><defs><style>.cls-1{fill:#f3e5b7}</style></defs><path id="Tracé_59" data-name="Tracé 59" class="cls-1" d="M84.452 89.41a11.831 11.831 0 0 1-7.025-1.851 3.967 3.967 0 0 1-1.686-3.441 34.12 34.12 0 0 0-58.247-24.126 34.121 34.121 0 0 0 0 48.254c21.043 21.043 44.617 22.8 66.959 22.8a20.819 20.819 0 1 0 0-41.639zm-38.631-1.091a5.94 5.94 0 1 1 0-8.4 5.94 5.94 0 0 1 0 8.4z" transform="translate(-6.025 -48.523)"/><path id="Tracé_60" data-name="Tracé 60" d="M111.634 123.25c-8.973 0-15.368-4.563-15.369-11.949a27.463 27.463 0 1 0-46.883 19.42c19.42 19.42 41.238 20.854 62.252 20.854a14.162 14.162 0 0 0 0-28.325zm-37.32-6.437a7.8 7.8 0 1 1 0-11.024 7.8 7.8 0 0 1 0 11.024z" transform="translate(-33.206 -75.705)" fill="#ea5e57"/><path id="Tracé_61" data-name="Tracé 61" d="M134.611 167.8c-3.865-1.9-5.192-5.612-5.192-12.592a16.711 16.711 0 1 0-28.519 11.807c8.237 8.237 18.913 9.708 29.3 9.708 7.822.001 8.277-7.023 4.411-8.923zm-17.7-8.391a5.94 5.94 0 1 1 0-8.4 5.94 5.94 0 0 1-.002 8.398z" transform="translate(-77.113 -119.611)" fill="#f298b8"/><path id="Tracé_62" data-name="Tracé 62" class="cls-1" d="M138.436 163.119a12.6 12.6 0 1 0 0 17.816 12.612 12.612 0 0 0 0-17.816zm-4.707 13.108a5.94 5.94 0 1 1 0-8.4 5.94 5.94 0 0 1-.001 8.4z" transform="translate(-93.932 -136.431)"/><g id="Groupe_11" data-name="Groupe 11" transform="translate(14.24 17.461)" opacity=".1"><circle id="Ellipse_22" data-name="Ellipse 22" cx="1.431" cy="1.431" r="1.431" transform="translate(60.949 48.66)"/><circle id="Ellipse_23" data-name="Ellipse 23" cx="1.431" cy="1.431" r="1.431" transform="translate(22.238 40.926)"/><circle id="Ellipse_24" data-name="Ellipse 24" cx="1.431" cy="1.431" r="1.431" transform="translate(42.75 23.109)"/><circle id="Ellipse_25" data-name="Ellipse 25" cx="1.431" cy="1.431" r="1.431" transform="translate(6.895)"/><circle id="Ellipse_26" data-name="Ellipse 26" cx="1.431" cy="1.431" r="1.431" transform="translate(0 18.134)"/></g><path id="Tracé_63" data-name="Tracé 63" d="M36.1 52.256a34.125 34.125 0 0 0-18.606 57.8c21.043 21.043 44.617 22.8 66.959 22.8a20.684 20.684 0 0 0 14.721-6.1l.022-.023C25.356 115.863 23.169 77.59 36.1 52.256z" transform="translate(-6.025 -50.336)" opacity=".1"/><path id="Tracé_64" data-name="Tracé 64" d="M30.521 110.309c15.74 8.8 32.3 9.534 47.906 9.534a15.638 15.638 0 0 0 0-31.276c-8.44 0-13.893-4.111-13.893-10.474A28.939 28.939 0 0 0 35.6 49.155a28.939 28.939 0 0 0-20.463 49.4 73.206 73.206 0 0 0 9.458 8.01 1.475 1.475 0 1 0 1.7-2.409 70.265 70.265 0 0 1-9.075-7.686 25.988 25.988 0 1 1 44.364-18.376c0 6.534 4.483 11.323 11.582 12.881a34.7 34.7 0 0 0-10.54 11.72 33.9 33.9 0 0 0-4.368 13.223 70.714 70.714 0 0 1-26.3-8.184 1.476 1.476 0 0 0-1.44 2.576zm47.6-18.8c.1 0 .205.005.31.005a12.687 12.687 0 1 1 0 25.374c-5.652 0-11.428-.1-17.231-.653.482-6.517 5.552-19.213 16.918-24.722zm14.036-4.859a1.476 1.476 0 1 0-1.82 2.323 19.338 19.338 0 0 1-11.909 34.576c-22.033 0-45.271-1.728-65.916-22.372A32.645 32.645 0 0 1 58.679 55.01a32.431 32.431 0 0 1 9.561 23.084 5.454 5.454 0 0 0 2.27 4.616 13.266 13.266 0 0 0 7.917 2.151 19.255 19.255 0 0 1 6.244 1.034 1.475 1.475 0 0 0 .955-2.792 22.2 22.2 0 0 0-7.2-1.192 10.563 10.563 0 0 1-6.134-1.551 2.52 2.52 0 0 1-1.1-2.265A35.6 35.6 0 0 0 35.6 42.5a35.6 35.6 0 0 0-25.169 60.766c21.442 21.442 45.351 23.236 68 23.236A22.288 22.288 0 0 0 92.157 86.65zm-46.61 1.395A14.089 14.089 0 1 0 35.6 92.16a14.089 14.089 0 0 0 9.947-4.115zM27.731 70.229a11.122 11.122 0 1 1 0 15.729 11.047 11.047 0 0 1 0-15.729zM40.84 83.338a7.424 7.424 0 1 0-5.24 2.169 7.424 7.424 0 0 0 5.24-2.169zm-8.4-8.4a4.465 4.465 0 1 1 0 6.315 4.451 4.451 0 0 1-.001-6.316z" transform="translate(0 -42.498)"/></svg>