<svg id="_012-bacon-1" data-name="012-bacon-1" xmlns="http://www.w3.org/2000/svg" viewBox="0 0 100.722 96.565"><defs><style>.cls-1{fill:#dd6a56}.cls-2{fill:#f298b8}.cls-7{fill:#fff}</style></defs><path id="Tracé_76" data-name="Tracé 76" class="cls-1" d="M29.945 61.276l5.929 1.524a15.309 15.309 0 0 1 11.02 11.02 15.308 15.308 0 0 0 11.02 11.02 15.309 15.309 0 0 1 11.02 11.02 15.309 15.309 0 0 0 11.02 11.02 15.309 15.309 0 0 1 11.02 11.02l1.522 5.929a5.139 5.139 0 0 1-1.344 4.913l-16.006 16.006a5.14 5.14 0 0 1-8.613-2.356l-.01-.041a15.309 15.309 0 0 0-11.02-11.02 15.309 15.309 0 0 1-11.02-11.02 15.309 15.309 0 0 0-11.02-11.02 15.309 15.309 0 0 1-11.02-11.02 15.309 15.309 0 0 0-11.02-11.02l-.041-.01a5.14 5.14 0 0 1-2.356-8.613L25.033 62.62a5.139 5.139 0 0 1 4.912-1.344z" transform="translate(-6.038 -51.17)"/><path id="Tracé_77" data-name="Tracé 77" class="cls-2" d="M34.016 96.685l9.27 2.38a14.433 14.433 0 0 1 10.39 10.39l.258 1a14.433 14.433 0 0 0 10.39 10.39l1 .258a14.433 14.433 0 0 1 10.39 10.39l.258 1a14.433 14.433 0 0 0 10.39 10.39l1 .258a14.433 14.433 0 0 1 10.39 10.39l2.38 9.27-8.479 8.479-2.38-9.27a14.433 14.433 0 0 0-10.39-10.39l-1-.258a14.433 14.433 0 0 1-10.39-10.39l-.258-1a14.433 14.433 0 0 0-10.39-10.39l-1-.258a14.434 14.434 0 0 1-10.39-10.39l-.258-1a14.433 14.433 0 0 0-10.39-10.39l-9.27-2.38z" transform="translate(-20.513 -79.744)"/><path id="Tracé_78" data-name="Tracé 78" d="M55.5 159.888a15.309 15.309 0 0 1 11.02 11.02l.01.041a5.14 5.14 0 0 0 8.613 2.356l7.846-7.846c-2.413-.715-4.453-3.186-5.619-7.646a14.931 14.931 0 0 0-6.166-8.622A21.719 21.719 0 0 0 74.547 142a8.871 8.871 0 0 1 6.2-6.333c-.262-.082-.525-.16-.793-.229a15.309 15.309 0 0 1-11.02-11.02 15.309 15.309 0 0 0-11.02-11.02 15.309 15.309 0 0 1-11.02-11.02c-.065-.251-.137-.5-.214-.745a21.757 21.757 0 0 0-7.462 8.451c-3.318-5.086-9.264-7.047-14.127-7.268-4.2-.191-5.556-3.058-5.548-6.149L9.024 107.184a5.14 5.14 0 0 0 2.356 8.616l.041.01a15.309 15.309 0 0 1 11.02 11.02 15.309 15.309 0 0 0 11.02 11.02 15.309 15.309 0 0 1 11.02 11.02 15.309 15.309 0 0 0 11.02 11.02z" transform="translate(-6.037 -79.728)" opacity=".1"/><path id="Tracé_79" data-name="Tracé 79" class="cls-1" d="M134.4 18.219l-5.929 1.522a15.309 15.309 0 0 0-11.02 11.02 15.309 15.309 0 0 1-11.02 11.02A15.309 15.309 0 0 0 95.409 52.8a15.309 15.309 0 0 1-11.02 11.02 15.309 15.309 0 0 0-11.02 11.02l-1.522 5.929a5.14 5.14 0 0 0 1.344 4.913L89.2 101.691a5.14 5.14 0 0 0 8.613-2.356l.01-.041a15.309 15.309 0 0 1 11.02-11.02 15.309 15.309 0 0 0 11.02-11.02 15.309 15.309 0 0 1 11.02-11.02 15.309 15.309 0 0 0 11.02-11.02 15.308 15.308 0 0 1 11.02-11.02l.041-.01a5.14 5.14 0 0 0 2.356-8.613l-16.009-16.008a5.141 5.141 0 0 0-4.911-1.344z" transform="translate(-57.583 -16.584)"/><path id="Tracé_80" data-name="Tracé 80" class="cls-2" d="M173.37 53.627l-9.27 2.38A14.433 14.433 0 0 0 153.71 66.4l-.258 1a14.433 14.433 0 0 1-10.39 10.39l-1 .258a14.433 14.433 0 0 0-10.39 10.39l-.258 1a14.433 14.433 0 0 1-10.39 10.39l-1 .258a14.433 14.433 0 0 0-10.39 10.39l-2.38 9.27 8.479 8.479 2.38-9.27a14.433 14.433 0 0 1 10.39-10.39l1-.258a14.433 14.433 0 0 0 10.39-10.39l.258-1a14.433 14.433 0 0 1 10.39-10.39l1-.258a14.433 14.433 0 0 0 10.39-10.39l.258-1a14.433 14.433 0 0 1 10.39-10.39l9.27-2.38z" transform="translate(-86.151 -45.156)"/><path id="Tracé_81" data-name="Tracé 81" d="M99.905 218.05c-4.494-7.849-5.633-14.7-4.556-22.316a15.307 15.307 0 0 1-10.962 10.811 15.309 15.309 0 0 0-11.02 11.02l-1.522 5.929a5.14 5.14 0 0 0 1.344 4.913L89.2 244.414a5.14 5.14 0 0 0 8.613-2.356l.01-.041A15.309 15.309 0 0 1 108.84 231a15.309 15.309 0 0 0 11.02-11.02 15.3 15.3 0 0 1 .779-2.271c-12.027 7.112-18.086 4.965-20.734.341z" transform="translate(-57.582 -159.307)" opacity=".05"/><g id="Groupe_13" data-name="Groupe 13" transform="translate(17.969 6.194)" opacity=".1"><circle id="Ellipse_29" data-name="Ellipse 29" cx="1.565" cy="1.565" r="1.565" transform="translate(46.654 27.276)"/><circle id="Ellipse_30" data-name="Ellipse 30" cx="1.565" cy="1.565" r="1.565" transform="translate(54.29)"/><circle id="Ellipse_31" data-name="Ellipse 31" cx="1.565" cy="1.565" r="1.565" transform="translate(15.304 13.87)"/><circle id="Ellipse_32" data-name="Ellipse 32" cx="1.565" cy="1.565" r="1.565" transform="translate(51.161 63.699)"/><circle id="Ellipse_33" data-name="Ellipse 33" cx="1.565" cy="1.565" r="1.565" transform="translate(0 32.986)"/><circle id="Ellipse_34" data-name="Ellipse 34" cx="1.565" cy="1.565" r="1.565" transform="translate(10.585 55.213)"/><circle id="Ellipse_35" data-name="Ellipse 35" cx="1.565" cy="1.565" r="1.565" transform="translate(31.629 59.031)"/><circle id="Ellipse_36" data-name="Ellipse 36" cx="1.565" cy="1.565" r="1.565" transform="translate(25.639 26.092)"/></g><g id="Groupe_14" data-name="Groupe 14" transform="translate(19.534 22.582)" opacity=".2"><circle id="Ellipse_37" data-name="Ellipse 37" class="cls-7" cx="1.565" cy="1.565" r="1.565" transform="translate(27.925 26.888)"/><circle id="Ellipse_38" data-name="Ellipse 38" class="cls-7" cx="1.565" cy="1.565" r="1.565"/><circle id="Ellipse_39" data-name="Ellipse 39" class="cls-7" cx="1.565" cy="1.565" r="1.565" transform="translate(61.864 4.381)"/><circle id="Ellipse_40" data-name="Ellipse 40" class="cls-7" cx="1.565" cy="1.565" r="1.565" transform="translate(43.522 61.893)"/></g><path id="Tracé_82" data-name="Tracé 82" d="M98.779 28.511L82.771 12.5a6.642 6.642 0 0 0-6.323-1.729L70.519 12.3a16.783 16.783 0 0 0-12.082 12.078 13.832 13.832 0 0 1-9.958 9.958 16.771 16.771 0 0 0-4.743 2.038 13.754 13.754 0 0 1-1.451-3.526A16.782 16.782 0 0 0 30.2 20.766l-5.929-1.522a6.642 6.642 0 0 0-6.323 1.73L1.944 36.981a6.615 6.615 0 0 0 3.035 11.086l.038.01a13.832 13.832 0 0 1 9.958 9.958 16.7 16.7 0 0 0 2.048 4.75 16.765 16.765 0 0 0-2.667 5.674l-1.522 5.929a6.644 6.644 0 0 0 1.73 6.323l16.008 16.007a6.538 6.538 0 0 0 4.645 1.944 6.729 6.729 0 0 0 1.778-.241 6.541 6.541 0 0 0 4.66-4.731l.012-.045a13.827 13.827 0 0 1 1.813-4.116 16.871 16.871 0 0 0 5.62 2.628 13.865 13.865 0 0 1 6.053 3.337 1.475 1.475 0 1 0 2.025-2.146 16.824 16.824 0 0 0-7.347-4.048 13.908 13.908 0 0 1-4.481-2.06 13.823 13.823 0 0 1 6.274-3.552 16.792 16.792 0 0 0 2.782-.983 15.879 15.879 0 0 0 2.6.916l1 .258a12.957 12.957 0 0 1 9.328 9.328l2.171 8.455-1.441 1.438a3.664 3.664 0 0 1-6.142-1.684l-.009-.036a16.786 16.786 0 0 0-.535-1.7 1.475 1.475 0 0 0-2.764 1.033 13.885 13.885 0 0 1 .441 1.407l.009.036a6.542 6.542 0 0 0 4.662 4.735 6.73 6.73 0 0 0 1.778.241 6.539 6.539 0 0 0 4.646-1.944l16.008-16.007a6.644 6.644 0 0 0 1.73-6.323l-1.522-5.929a16.783 16.783 0 0 0-12.083-12.082 13.891 13.891 0 0 1-4.083-1.791 13.823 13.823 0 0 1 3.461-1.41 16.782 16.782 0 0 0 12.086-12.081 13.832 13.832 0 0 1 9.958-9.958l.04-.01a6.616 6.616 0 0 0 3.033-11.085zM20.038 23.06a3.681 3.681 0 0 1 3.5-.958l5.929 1.522a13.833 13.833 0 0 1 9.958 9.958 16.692 16.692 0 0 0 1.945 4.585 16.775 16.775 0 0 0-4.585 6.955 12.929 12.929 0 0 1-1.938-4.208l-.258-1A15.908 15.908 0 0 0 23.14 28.46l-6.765-1.737zm-6.087 6.087l8.455 2.171a12.957 12.957 0 0 1 9.328 9.328l.258 1a15.893 15.893 0 0 0 3.7 6.814 13.836 13.836 0 0 1-6.119 6.683 12.905 12.905 0 0 1-3.206-5.752l-.258-1a15.907 15.907 0 0 0-11.448-11.452L7.9 35.2zm-8.2 16.071l-.038-.01a3.665 3.665 0 0 1-1.68-6.141l1.442-1.442 8.453 2.175a12.957 12.957 0 0 1 9.328 9.328l.258 1a15.846 15.846 0 0 0 3.154 6.186c-.076.021-.151.043-.227.063a16.768 16.768 0 0 0-7.368 4.073 13.766 13.766 0 0 1-1.239-3.15A16.785 16.785 0 0 0 5.749 45.218zM30.529 84l-1.737 6.765-6.055-6.055 2.171-8.455a12.956 12.956 0 0 1 9.328-9.328l1-.258a15.907 15.907 0 0 0 11.456-11.45l.258-1a12.957 12.957 0 0 1 9.328-9.328l1-.258A15.809 15.809 0 0 0 67.9 35.595a1.475 1.475 0 1 0-2.7-1.182 12.875 12.875 0 0 1-8.65 7.359l-1 .258a15.908 15.908 0 0 0-11.459 11.452l-.258 1a12.957 12.957 0 0 1-9.328 9.328l-1 .258a15.907 15.907 0 0 0-11.454 11.454l-1.737 6.765-3.663-3.663a3.679 3.679 0 0 1-.958-3.5l1.522-5.929a13.832 13.832 0 0 1 9.958-9.958 16.791 16.791 0 0 0 2.72-.954 16.784 16.784 0 0 0 9.36-11.127 13.833 13.833 0 0 1 9.958-9.958A16.783 16.783 0 0 0 61.3 25.112a13.832 13.832 0 0 1 9.958-9.958l5.929-1.522a3.679 3.679 0 0 1 3.5.958l3.663 3.663-6.767 1.737a15.957 15.957 0 0 0-10.036 7.839 1.475 1.475 0 1 0 2.6 1.4 13 13 0 0 1 8.174-6.385l8.455-2.171 6.055 6.055-6.765 1.737A15.907 15.907 0 0 0 74.61 39.92l-.258 1a12.957 12.957 0 0 1-9.328 9.328l-1 .258A15.907 15.907 0 0 0 52.57 61.961l-.258 1a12.956 12.956 0 0 1-9.328 9.328l-1 .258A15.908 15.908 0 0 0 30.529 84zm41.4 15.235l-1.737-6.765a15.907 15.907 0 0 0-11.45-11.45l-1-.258-.067-.019a16.785 16.785 0 0 0 5.139-6.55 15.841 15.841 0 0 0 2.672.949l1 .258a12.957 12.957 0 0 1 9.328 9.328l2.171 8.455zM73.55 67.7a13.832 13.832 0 0 1 9.958 9.958l1.522 5.929a3.679 3.679 0 0 1-.958 3.5l-3.663 3.663-1.737-6.765a15.908 15.908 0 0 0-11.451-11.444l-1-.258a12.928 12.928 0 0 1-2.448-.9A13.823 13.823 0 0 1 67.7 64.9a16.869 16.869 0 0 0 5.85 2.8zm24.086-33.545a3.625 3.625 0 0 1-2.624 2.583l-.04.01A16.782 16.782 0 0 0 82.89 48.83a13.833 13.833 0 0 1-9.958 9.958 16.764 16.764 0 0 0-6.154 3.028h-.006a16.778 16.778 0 0 0-5.923 9.049 13.832 13.832 0 0 1-9.958 9.958A16.781 16.781 0 0 0 38.81 92.906l-.012.045a3.665 3.665 0 0 1-6.141 1.68l-1.442-1.442 2.171-8.455a12.957 12.957 0 0 1 9.328-9.328l1-.258A15.908 15.908 0 0 0 55.17 63.7l.258-1a12.957 12.957 0 0 1 9.328-9.328l1-.258a15.907 15.907 0 0 0 11.455-11.457l.258-1a12.957 12.957 0 0 1 9.331-9.331l8.455-2.171 1.438 1.445a3.627 3.627 0 0 1 .943 3.555z" transform="translate(0 -10.568)"/></svg>