<svg data-name="003-minus" xmlns="http://www.w3.org/2000/svg" viewBox="0 0 100.722 27.47"><path data-name="Tracé 35" d="M13.6 25.181h25.315V2.289H13.6a11.447 11.447 0 0 0 0 22.892z" fill="#fff"/><path data-name="Tracé 36" d="M87.126 2.289H61.807v22.892h25.319a11.447 11.447 0 0 0 0-22.892z" fill="#fa948f"/><path data-name="Tracé 37" d="M80.254 2.289H20.467a11.447 11.447 0 0 0 0 22.892h59.787a11.447 11.447 0 0 0 0-22.892z" fill="#ea5e57"/><path data-name="Tracé 38" d="M87.122 27.47H13.6A13.736 13.736 0 0 1 13.6 0h73.522a13.736 13.736 0 0 1 0 27.47zM13.6 4.578a9.158 9.158 0 0 0 0 18.313h73.522a9.158 9.158 0 0 0 0-18.313z" fill="#934642"/></svg>