<svg xmlns="http://www.w3.org/2000/svg" viewBox="0 0 101 102.884"><defs><style>.cls-4{fill:#fff}</style></defs><g id="_008-price-tag" data-name="008-price-tag" transform="translate(1.5 1.693)"><path id="Tracé_54" data-name="Tracé 54" d="M50.215 8.449L1.251 57.818a4.274 4.274 0 0 0 0 6.042l34.58 34.581a4.274 4.274 0 0 0 6.042 0l47.678-48.967V8.449zm22.439 23.655a6.759 6.759 0 1 1 6.759-6.755 6.759 6.759 0 0 1-6.759 6.755z" stroke="#333" stroke-width="3" fill="#46b29d"/><path id="Tracé_55" data-name="Tracé 55" d="M72.654 11.828a13.517 13.517 0 1 0 13.518 13.517 13.518 13.518 0 0 0-13.518-13.517zm0 20.276a6.759 6.759 0 1 1 6.759-6.759 6.759 6.759 0 0 1-6.759 6.759z" fill="#28685c" stroke="#333" stroke-width="3"/><path id="Tracé_56" data-name="Tracé 56" d="M72.655 27.035a1.69 1.69 0 0 1-1.19-2.884L95.116.5a1.689 1.689 0 0 1 2.389 2.384L73.849 26.54a1.685 1.685 0 0 1-1.194.495z" fill="#fdd7ad" stroke="#333" stroke-width="3"/><path id="Tracé_57" data-name="Tracé 57" class="cls-4" d="M27.686 59.571a12.591 12.591 0 0 1-8.9-21.494 1.689 1.689 0 1 1 2.389 2.389 9.212 9.212 0 0 0 7.285 15.693 5 5 0 0 0 3.486-1.87 5.514 5.514 0 0 0 1.181-4.135l-2.24-17.919a8.908 8.908 0 0 1 1.913-6.684 8.347 8.347 0 0 1 5.829-3.107 12.59 12.59 0 0 1 9.951 21.448 1.689 1.689 0 0 1-2.389-2.392 9.212 9.212 0 0 0-7.286-15.694 5 5 0 0 0-3.486 1.87 5.512 5.512 0 0 0-1.181 4.135l2.24 17.919a8.911 8.911 0 0 1-1.909 6.683 8.342 8.342 0 0 1-5.829 3.109c-.351.035-.703.049-1.054.049z" transform="translate(9.57 15.449)"/><path id="Tracé_58" data-name="Tracé 58" class="cls-4" d="M17.223 58.326a1.69 1.69 0 0 1-1.195-2.884l31.8-31.8a1.689 1.689 0 0 1 2.389 2.389l-31.8 31.8a1.688 1.688 0 0 1-1.194.495z" transform="translate(9.866 15.966)"/></g></svg>