<svg xmlns="http://www.w3.org/2000/svg" viewBox="0 0 97.546 35.362"><defs><style>.cls-2{fill:#fff}.cls-3{fill:#495059}.cls-5{fill:#b37764}</style></defs><g id="TopBread" transform="translate(-1.588)"><path id="Tracé_9" data-name="Tracé 9" d="M99.231 77.866H14.464a6.386 6.386 0 0 1-6.232-7.784l1.324-5.9A27.751 27.751 0 0 1 36.634 42.5h40.427a27.751 27.751 0 0 1 27.078 21.677l1.324 5.9a6.386 6.386 0 0 1-6.232 7.789z" transform="translate(-6.486 -42.504)" fill="#f3c97f"/><g id="Groupe_2" data-name="Groupe 2" transform="translate(26.048 14.252)"><ellipse id="Ellipse_3" data-name="Ellipse 3" class="cls-2" cx="6.553" cy="5.219" rx="6.553" ry="5.219"/><ellipse id="Ellipse_4" data-name="Ellipse 4" class="cls-2" cx="6.553" cy="5.219" rx="6.553" ry="5.219" transform="translate(35.52)"/></g><g id="Groupe_3" data-name="Groupe 3" transform="translate(31.825 9.197)"><path id="Tracé_10" data-name="Tracé 10" class="cls-3" d="M169.49 95.325a1.475 1.475 0 0 1-1.475-1.475 1.644 1.644 0 1 0-3.288 0 1.475 1.475 0 1 1-2.951 0 4.595 4.595 0 1 1 9.189 0 1.475 1.475 0 0 1-1.475 1.475z" transform="translate(-161.776 -89.255)"/><path id="Tracé_11" data-name="Tracé 11" class="cls-3" d="M311.226 95.325a1.475 1.475 0 0 1-1.475-1.475 1.644 1.644 0 0 0-3.288 0 1.475 1.475 0 1 1-2.951 0 4.595 4.595 0 1 1 9.189 0 1.475 1.475 0 0 1-1.475 1.475z" transform="translate(-275.629 -89.255)"/><path id="Tracé_12" data-name="Tracé 12" class="cls-3" d="M236.465 128.1a5.864 5.864 0 0 1-4.421-2.013 1.476 1.476 0 0 1 2.225-1.939 2.91 2.91 0 0 0 4.393 0 1.476 1.476 0 0 1 2.225 1.939 5.864 5.864 0 0 1-4.422 2.013z" transform="translate(-217.928 -116.878)"/></g><path id="Tracé_13" data-name="Tracé 13" d="M38.113 42.5h-1.479A27.751 27.751 0 0 0 9.555 64.181l-1.323 5.9a6.386 6.386 0 0 0 6.232 7.784h30.2c-12.39-8.816-8.841-27.679-6.551-35.365z" transform="translate(-6.486 -42.504)" fill="#c85412" opacity=".15"/><g id="Groupe_5" data-name="Groupe 5" transform="translate(13.684 9.648)"><path id="Tracé_21" data-name="Tracé 21" class="cls-5" d="M107.827 97.069a1.475 1.475 0 0 1-1.475-1.475v-2.57a1.475 1.475 0 1 1 2.951 0v2.57a1.475 1.475 0 0 1-1.476 1.475z" transform="translate(-99.114 -91.548)"/><path id="Tracé_22" data-name="Tracé 22" class="cls-5" d="M192.268 173.288a1.475 1.475 0 0 1-1.475-1.475v-2.57a1.475 1.475 0 0 1 2.951 0v2.57a1.475 1.475 0 0 1-1.476 1.475z" transform="translate(-166.944 -152.773)"/><path id="Tracé_23" data-name="Tracé 23" class="cls-5" d="M71.036 158.582a1.475 1.475 0 0 1-1.475-1.475v-2.57a1.475 1.475 0 1 1 2.951 0v2.57a1.475 1.475 0 0 1-1.476 1.475z" transform="translate(-69.561 -140.96)"/><path id="Tracé_24" data-name="Tracé 24" class="cls-5" d="M392.122 97.069a1.475 1.475 0 0 1-1.475-1.475v-2.57a1.475 1.475 0 1 1 2.951 0v2.57a1.475 1.475 0 0 1-1.476 1.475z" transform="translate(-327.482 -91.548)"/><path id="Tracé_25" data-name="Tracé 25" class="cls-5" d="M307.681 173.288a1.475 1.475 0 0 1-1.475-1.475v-2.57a1.475 1.475 0 0 1 2.951 0v2.57a1.475 1.475 0 0 1-1.476 1.475z" transform="translate(-259.652 -152.773)"/><path id="Tracé_26" data-name="Tracé 26" class="cls-5" d="M428.914 158.582a1.475 1.475 0 0 1-1.475-1.475v-2.57a1.475 1.475 0 1 1 2.951 0v2.57a1.475 1.475 0 0 1-1.476 1.475z" transform="translate(-357.036 -140.96)"/></g></g></svg>