<svg xmlns="http://www.w3.org/2000/svg" viewBox="0 0 83.636 14.427"><path data-name="Tracé 19" d="M4.228 11.613a8.294 8.294 0 0 0 12.452 0 5.633 5.633 0 0 1 8.457 0 8.294 8.294 0 0 0 12.452 0 5.633 5.633 0 0 1 8.457 0 8.294 8.294 0 0 0 12.452 0 5.633 5.633 0 0 1 8.457 0 8.294 8.294 0 0 0 12.452 0 16.957 16.957 0 0 0 4.228-11.2V.004H0v.409a16.959 16.959 0 0 0 4.228 11.2z" fill="#8cd4a2"/><path data-name="Tracé 20" d="M0 .409a16.958 16.958 0 0 0 4.228 11.2 8.3 8.3 0 0 0 9.809 2 18.527 18.527 0 0 1-3.321-7.286 2.317 2.317 0 0 1 2.254-2.838h70.382a16.951 16.951 0 0 0 .283-3.081v-.409H0z" opacity=".1"/></svg>