<svg id="_014-tomato-1" data-name="014-tomato-1" xmlns="http://www.w3.org/2000/svg" viewBox="0 0 100.723 96.608"><defs><style>.cls-1{fill:#6bb48c}.cls-2{opacity:.1}.cls-5{fill:#f298b8}</style></defs><path id="Tracé_92" data-name="Tracé 92" class="cls-1" d="M260.655 38.125a3.4 3.4 0 0 1-2.746-5.389c.343-.474.684-.934 1.023-1.391a30.436 30.436 0 0 0 5.729-10.932 3.4 3.4 0 0 1 6.52 1.9 36.968 36.968 0 0 1-6.792 13.074c-.325.438-.652.88-.981 1.334a3.392 3.392 0 0 1-2.753 1.404z" transform="translate(-206.652 -16.49)"/><path id="Tracé_93" data-name="Tracé 93" class="cls-2" d="M264.627 63.806a.884.884 0 0 1-1.161-.677 18.855 18.855 0 0 0-1.086-3.618 40.472 40.472 0 0 1-3.448 5.206c-.338.457-.679.917-1.023 1.391a3.4 3.4 0 1 0 5.5 3.986c.329-.454.657-.9.981-1.334a47.575 47.575 0 0 0 3.866-5.83 21.234 21.234 0 0 0-3.629.876z" transform="translate(-206.652 -49.861)"/><path id="Tracé_94" data-name="Tracé 94" class="cls-1" d="M136.011 56.083a1.19 1.19 0 0 0-.753 2.01 39.532 39.532 0 0 0 9.5 7.323c6.587 3.5 13.984 1 13.984 1s7.4 2.506 13.984-1a39.526 39.526 0 0 0 9.5-7.323 1.19 1.19 0 0 0-.753-2.01c-3.919-.351-11.893-.76-17.072 1.052a.884.884 0 0 1-1.161-.677 27.25 27.25 0 0 0-3.459-8.341 1.209 1.209 0 0 0-2.077 0 27.25 27.25 0 0 0-3.459 8.341.884.884 0 0 1-1.161.677c-5.184-1.812-13.154-1.403-17.073-1.052z" transform="translate(-108.381 -40.235)"/><path id="Tracé_95" data-name="Tracé 95" d="M136.011 56.083a1.19 1.19 0 0 0-.753 2.01 39.532 39.532 0 0 0 9.5 7.323c6.587 3.5 13.984 1 13.984 1s7.4 2.506 13.984-1a39.526 39.526 0 0 0 9.5-7.323 1.19 1.19 0 0 0-.753-2.01c-3.919-.351-11.893-.76-17.072 1.052a.884.884 0 0 1-1.161-.677 27.25 27.25 0 0 0-3.459-8.341 1.209 1.209 0 0 0-2.077 0 27.25 27.25 0 0 0-3.459 8.341.884.884 0 0 1-1.161.677c-5.184-1.812-13.154-1.403-17.073-1.052z" transform="translate(-108.381 -40.235)" fill="#8cd4a2"/><path id="Tracé_96" data-name="Tracé 96" class="cls-2" d="M179.034 94.778a35.733 35.733 0 0 0-7.242-.764 36.11 36.11 0 0 0-6.814.622c-4.126.777-8.431 1.138-12.472 0-2.705-.762-5.543-2.735-4.788-4.911a63.8 63.8 0 0 0-11.708.054 1.19 1.19 0 0 0-.753 2.01 39.532 39.532 0 0 0 9.5 7.323c6.587 3.5 13.984 1 13.984 1s7.4 2.506 13.984-1a36.266 36.266 0 0 0 6.309-4.334z" transform="translate(-108.38 -73.931)"/><path id="Tracé_97" data-name="Tracé 97" d="M69.437 128.436a36.109 36.109 0 0 0-6.814.622 33.671 33.671 0 0 1-12.472 0 35.962 35.962 0 1 0-.762 70.814 42.729 42.729 0 0 1 14 0 35.964 35.964 0 1 0 6.053-71.436z" transform="translate(-6.025 -105.227)" fill="#ea5e57"/><g id="Groupe_18" data-name="Groupe 18" transform="translate(21.667 50.871)"><ellipse id="Ellipse_50" data-name="Ellipse 50" class="cls-5" cx="7.733" cy="6.159" rx="7.733" ry="6.159"/><ellipse id="Ellipse_51" data-name="Ellipse 51" class="cls-5" cx="7.733" cy="6.159" rx="7.733" ry="6.159" transform="translate(41.922)"/></g><path id="Tracé_98" data-name="Tracé 98" class="cls-2" d="M50.15 129.058a35.962 35.962 0 1 0-.762 70.814 42.729 42.729 0 0 1 14 0A36.024 36.024 0 0 0 91.75 192.5c-86.778 2.578-59.182-55.2-41.6-63.442z" transform="translate(-6.025 -105.227)"/><path id="Tracé_99" data-name="Tracé 99" d="M61.657 60.788a1.475 1.475 0 1 0 2.951 0 2.206 2.206 0 0 1 4.412 0 1.475 1.475 0 1 0 2.951 0 5.157 5.157 0 0 0-10.313 0zm28.186-17.571a37.139 37.139 0 0 0-18.89-10.244 44.7 44.7 0 0 0 3.954-3.632 2.665 2.665 0 0 0-1.684-4.5 68.324 68.324 0 0 0-10.561-.178 37.465 37.465 0 0 0 3.282-7.963 4.871 4.871 0 1 0-9.353-2.727 27.5 27.5 0 0 1-2.544 6.125 39.9 39.9 0 0 0-1.381-2.511 2.685 2.685 0 0 0-4.61 0 29.665 29.665 0 0 0-3.511 8.172 29.728 29.728 0 0 0-6.5-1.1 1.476 1.476 0 1 0-.21 2.944 25.2 25.2 0 0 1 6.381 1.151 2.36 2.36 0 0 0 3.1-1.809 25.282 25.282 0 0 1 3.046-7.458 25.291 25.291 0 0 1 3.046 7.458 2.36 2.36 0 0 0 3.1 1.808c4.746-1.66 12.27-1.316 15.852-1.026a40.477 40.477 0 0 1-5.494 4.637q-1.71-.161-3.45-.169a37.32 37.32 0 0 0-7.092.647 32.084 32.084 0 0 1-11.926 0 37.435 37.435 0 0 0-7.094-.647q-1.738.006-3.448.169a40.518 40.518 0 0 1-5.494-4.637c.885-.072 1.779-.13 2.664-.171a1.476 1.476 0 0 0-.138-2.948c-1.127.053-2.268.13-3.39.231a2.665 2.665 0 0 0-1.684 4.5 44.792 44.792 0 0 0 3.955 3.632 37.444 37.444 0 0 0 7.668 74.094 37.751 37.751 0 0 0 6.168-.507 41.145 41.145 0 0 1 13.512 0 37.754 37.754 0 0 0 6.168.507 37.315 37.315 0 0 0 20.142-5.875 1.475 1.475 0 0 0-1.59-2.486 34.372 34.372 0 0 1-18.552 5.41 34.8 34.8 0 0 1-5.685-.467 44.078 44.078 0 0 0-14.479 0 34.8 34.8 0 0 1-5.685.467 34.486 34.486 0 0 1-3.8-68.766h.017a35.238 35.238 0 0 1 3.664-.205 34.374 34.374 0 0 1 6.538.6 35.012 35.012 0 0 0 13.018 0 34.734 34.734 0 0 1 6.415-.6h.12a35.21 35.21 0 0 1 3.665.205h.016a34.488 34.488 0 0 1 20.038 59.2 1.475 1.475 0 0 0 2.04 2.132 37.469 37.469 0 0 0 .677-53.464zM56.176 25.756a20.12 20.12 0 0 0-.7-2.372 29.3 29.3 0 0 0 3.948-8.584 1.92 1.92 0 1 1 3.687 1.075 33.317 33.317 0 0 1-4.17 9.235 23.262 23.262 0 0 0-2.765.646zM28.751 60.788a1.475 1.475 0 0 0 2.951 0 2.206 2.206 0 0 1 4.412 0 1.475 1.475 0 0 0 2.951 0 5.157 5.157 0 0 0-10.313 0zm24.4 3.333a3.7 3.7 0 0 1-5.585 0 1.475 1.475 0 0 0-2.224 1.939 6.651 6.651 0 0 0 10.034 0 1.475 1.475 0 0 0-2.224-1.939z" transform="translate(0 -10.46)"/></svg>