<svg xmlns="http://www.w3.org/2000/svg" viewBox="0 0 83.636 9.829">
  <defs>
    <style>
      .cls-1 {
        fill: #f3e5b7;
      }

      .cls-2 {
        opacity: 0.1;
      }
    </style>
  </defs>
  <g id="Salad" transform="translate(-8.544 -35.362)">
    <path id="Tracé_19" data-name="Tracé 19" class="cls-1" d="M47.657,230.17h0a11.068,11.068,0,0,0,12.452,0h0a7.517,7.517,0,0,1,8.457,0h0a11.068,11.068,0,0,0,12.452,0h0a7.517,7.517,0,0,1,8.457,0h0a11.068,11.068,0,0,0,12.452,0h0a7.517,7.517,0,0,1,8.457,0h0a11.068,11.068,0,0,0,12.452,0h0c2.725-2.109,4.228-4.823,4.228-7.633v-.279H43.429v.279C43.429,225.347,44.932,228.061,47.657,230.17Z" transform="translate(-34.885 -186.897)"/>
    <path id="Tracé_20" data-name="Tracé 20" class="cls-2" d="M43.429,222.538c0,2.81,1.5,5.523,4.228,7.633h0a11.172,11.172,0,0,0,9.809,1.363,11.334,11.334,0,0,1-3.321-4.964c-.331-.99.764-1.933,2.254-1.933h70.382a8,8,0,0,0,.283-2.1v-.279H43.429Z" transform="translate(-34.885 -186.897)"/>
  </g>
</svg>
