<svg xmlns="http://www.w3.org/2000/svg" viewBox="0 0 88.902 100.048"><g data-name="019-food"><path data-name="Tracé 128" d="M69.195 48.753a13.822 13.822 0 0 0 8.811-.7 15.09 15.09 0 0 0 9.392-13.365 14.783 14.783 0 0 0-9.9-14.257 11.494 11.494 0 0 0-11.46-10.704h-.052a7.087 7.087 0 0 0-.246-2.861 7.482 7.482 0 0 0-6.194-5.3 7.379 7.379 0 0 0-6.1 2.085 8.185 8.185 0 0 0-13.7 6.081v.042a10.637 10.637 0 0 0-9.56 13.131A12.3 12.3 0 0 0 20.044 41.36a9.031 9.031 0 0 0 2.727 15.5c-.454 16.068 5.28 25.551 16.373 38.319l.6.687.131.146c4.613 5.176 15.017 1.212 12.779-5.35-11.95-35.059 24.887-29.991 24.887-29.991s1.053-10.6-8.45-11.1l.037-.8c.024-.004.043-.012.067-.018z" stroke="#333" stroke-width="3" fill="#8cd4a2"/><path data-name="Tracé 129" d="M39.878 96.011l-.131-.146-.6-.687c-11.095-12.77-16.829-22.251-16.375-38.319a9.031 9.031 0 0 1-2.727-15.5 12.3 12.3 0 0 1 10.147-18.458 10.614 10.614 0 0 1 6.337-12.362 15.952 15.952 0 0 0-1.016-2.551c-2.148-4.255-5.927-6.928-9.377-6.366-2.844.462-4.833 2.782-5.689 5.905-2.385-1.606-5.031-2.23-7.421-1.388-5.124 1.8-6.74 9.172-3.806 16 .009.021.021.038.03.059-5.555 2.647-7.031 10.535-3.51 17.652a19.011 19.011 0 0 0 1.764 2.871C1.372 45.257-.25 52.96 3.613 59.691a16.985 16.985 0 0 0 4.717 5.26 7.834 7.834 0 0 0 .7 6.987 10.174 10.174 0 0 0 8.588 5.023c5.723 11.239 12.746 15.6 23.378 20.111.112.047.223.094.335.139a6.7 6.7 0 0 1-1.453-1.2z" fill="#7dbd90" stroke="#333" stroke-width="3"/><path data-name="Tracé 130" d="M44.046 43.512a1.657 1.657 0 0 0 .152-.673 36.852 36.852 0 0 1 4.32-7.823 25.777 25.777 0 0 1 13.846.856 1.761 1.761 0 0 0 2.294-.878 1.7 1.7 0 0 0-.9-2.251 27.719 27.719 0 0 0-11.968-1.621 27.63 27.63 0 0 1 6.787-5.236c2.533-1.189 6.234.348 7.449 1.042a1.766 1.766 0 0 0 2.385-.6 1.687 1.687 0 0 0-.617-2.338 15.085 15.085 0 0 0-8.133-1.889 9.514 9.514 0 0 1 1.494-3.151 1.682 1.682 0 0 0-.328-2.391 1.765 1.765 0 0 0-2.442.319 11.917 11.917 0 0 0-2.392 6.53 37.271 37.271 0 0 0-13.675 15.4c-.248.5-.486 1.035-.723 1.573-4.756-3.185-3.973-8.851-3.93-9.126a1.713 1.713 0 0 0-1.449-1.95 1.741 1.741 0 0 0-2 1.417 12.882 12.882 0 0 0 6.093 12.917 49.533 49.533 0 0 0-2.584 13.462 1.661 1.661 0 0 0-.028.49 67.145 67.145 0 0 0 .6 12.266 8.647 8.647 0 0 1-3.286-3.053 1.766 1.766 0 0 0-2.352-.707 1.691 1.691 0 0 0-.73 2.307 12.345 12.345 0 0 0 7 5.412 108.015 108.015 0 0 0 6.745 23.071 7.563 7.563 0 0 0 3.607-1.091c-.005-.014-.2-.3-.2-.318a102.829 102.829 0 0 1-6.961-23.301c-.007-.041-.01-.08-.019-.12a65.531 65.531 0 0 1-1.03-13.989c2.441-4.076 9.615-4.24 9.688-4.242a1.708 1.708 0 1 0-.024-3.415h-.021a20.215 20.215 0 0 0-9.2 2.531 43.16 43.16 0 0 1 2.273-9.037 1.637 1.637 0 0 0 .259-.393z" fill="#7dbd90"/></g></svg>