<svg xmlns="http://www.w3.org/2000/svg" viewBox="0 0 98.547 16.058"><path data-name="Tracé 15" d="M92.365.005H6.182A6.182 6.182 0 0 0 0 6.187v3.694a6.182 6.182 0 0 0 6.182 6.182h86.183a6.182 6.182 0 0 0 6.182-6.182V6.187A6.183 6.183 0 0 0 92.365.005z" fill="#b37764"/><path data-name="Tracé 16" d="M6.182.005A6.182 6.182 0 0 0 0 6.187v3.694a6.182 6.182 0 0 0 6.182 6.182h36.5c-6.6-2.868-6.33-11.229-4.615-16.058z" opacity=".1"/><g data-name="Groupe 4" transform="translate(6.122 7.016)" opacity=".1"><ellipse data-name="Ellipse 5" cx="1.489" cy="1.489" rx="1.489" ry="1.489"/><ellipse data-name="Ellipse 6" cx="1.489" cy="1.489" rx="1.489" ry="1.489" transform="translate(21.852 2.86)"/><ellipse data-name="Ellipse 7" cx="1.489" cy="1.489" rx="1.489" ry="1.489" transform="translate(43.482 1.292)"/><ellipse data-name="Ellipse 8" cx="1.489" cy="1.489" rx="1.489" ry="1.489" transform="translate(65.472 2.978)"/><ellipse data-name="Ellipse 9" cx="1.489" cy="1.489" rx="1.489" ry="1.489" transform="translate(82.941)"/></g></svg>