<svg id="_011-cheese-1" data-name="011-cheese-1" xmlns="http://www.w3.org/2000/svg" viewBox="0 0 100.723 80.141"><defs><style>.cls-3{fill:#f298b8}</style></defs><path id="Tracé_70" data-name="Tracé 70" d="M61.433 81.508a5.786 5.786 0 0 1-2.883-11.17 5.923 5.923 0 0 1 1.042-.251 1.461 1.461 0 0 0 1.223-1.7l-.509-2.887a6.872 6.872 0 0 0-7.96-5.574l-20.089 3.539a1.467 1.467 0 0 0-1.209 1.469 7.654 7.654 0 0 1-14.877 2.623 1.467 1.467 0 0 0-1.639-.967l-1.348.238a6.872 6.872 0 0 0-5.574 7.96l6.905 39.161a6.872 6.872 0 0 0 7.96 5.574l18.645-3.288a1.45 1.45 0 0 0 1.185-1.161 7.653 7.653 0 0 1 14.167-2.5 1.45 1.45 0 0 0 1.511.686l3.653-.644a6.872 6.872 0 0 0 5.574-7.96l-3.879-22a1.462 1.462 0 0 0-1.731-1.18zm-35.77 28.271a5.785 5.785 0 1 1 4.692-6.7 5.785 5.785 0 0 1-4.691 6.7zm14.8-18.7a5.785 5.785 0 1 1 4.692-6.7 5.785 5.785 0 0 1-4.69 6.701z" transform="translate(-6.028 -58.34)" fill="#f3c97f"/><path id="Tracé_71" data-name="Tracé 71" d="M281.914 212.039a6.165 6.165 0 0 1 3.3-5.459 1.479 1.479 0 0 0 .8-1.305v-18.211a6.872 6.872 0 0 0-6.872-6.872h-14.13a1.459 1.459 0 0 0-1.464 1.46 7.786 7.786 0 0 1-.055.979 7.653 7.653 0 0 1-15.25-.928v-.016a1.475 1.475 0 0 0-1.465-1.5h-7.4a6.872 6.872 0 0 0-6.872 6.872v39.765a6.872 6.872 0 0 0 6.872 6.872h18.536a1.467 1.467 0 0 0 1.446-1.237 7.639 7.639 0 0 1 15.077 0 1.467 1.467 0 0 0 1.446 1.237h3.26a6.872 6.872 0 0 0 6.872-6.872V218.8a1.48 1.48 0 0 0-.8-1.305 6.165 6.165 0 0 1-3.301-5.456zm-38.244 10.184a5.785 5.785 0 1 1 5.785-5.785 5.785 5.785 0 0 1-5.786 5.784z" transform="translate(-186.765 -155.035)" fill="#f3e5b7"/><g id="Groupe_12" data-name="Groupe 12" transform="translate(53.834 44.135)"><ellipse id="Ellipse_27" data-name="Ellipse 27" class="cls-3" cx="5.029" cy="4.005" rx="5.029" ry="4.005"/><ellipse id="Ellipse_28" data-name="Ellipse 28" class="cls-3" cx="5.029" cy="4.005" rx="5.029" ry="4.005" transform="translate(27.26)"/></g><path id="Tracé_72" data-name="Tracé 72" d="M353.625 270.143a3.644 3.644 0 0 1-3.644-3.644v-2.649a1 1 0 0 1 .995-.995h5.3a1 1 0 0 1 .995.995v2.65a3.643 3.643 0 0 1-3.646 3.643z" transform="translate(-281.131 -221.437)" fill="#495059"/><path id="Tracé_73" data-name="Tracé 73" d="M249.428 215.891c.017.18.027.363.027.548a5.786 5.786 0 1 1-2.6-4.826c-6.037-11.9-3.62-24.289-.966-31.419h-6.516a6.872 6.872 0 0 0-6.872 6.872v39.764a6.872 6.872 0 0 0 6.872 6.872h18.536a1.467 1.467 0 0 0 1.446-1.237 7.633 7.633 0 0 1 2.826-4.774 43.978 43.978 0 0 1-12.753-11.8z" transform="translate(-186.765 -155.035)" opacity=".05"/><path id="Tracé_74" data-name="Tracé 74" d="M42.305 142.641a7.66 7.66 0 0 1 4.884-5.85c-14.988-8.4-21.52-23.169-20.468-37.3a7.659 7.659 0 0 1-10.551-4.367 1.467 1.467 0 0 0-1.639-.967l-1.348.238a6.872 6.872 0 0 0-5.574 7.96l6.905 39.161a6.872 6.872 0 0 0 7.96 5.574l18.646-3.29a1.45 1.45 0 0 0 1.185-1.159zm-16.642-5.3a5.785 5.785 0 1 1 4.692-6.7 5.785 5.785 0 0 1-4.692 6.705z" transform="translate(-6.027 -85.907)" fill="#c85412" opacity=".15"/><path id="Tracé_75" data-name="Tracé 75" d="M49.644 113.713a7.26 7.26 0 1 0 7.26-7.26 7.268 7.268 0 0 0-7.26 7.26zm11.57 0A4.31 4.31 0 1 1 56.9 109.4a4.314 4.314 0 0 1 4.314 4.313zm7.534-47.447a2.865 2.865 0 0 1 0 3.587 1.475 1.475 0 1 0 2.308 1.838 5.8 5.8 0 0 0 0-7.264 2.865 2.865 0 0 1 0-3.587 5.8 5.8 0 0 0 0-7.264 1.476 1.476 0 0 0-2.308 1.839 2.865 2.865 0 0 1 0 3.587 5.8 5.8 0 0 0 0 7.263zm11.032 0a2.865 2.865 0 0 1 0 3.587 1.475 1.475 0 1 0 2.308 1.838 5.8 5.8 0 0 0 0-7.264 2.865 2.865 0 0 1 0-3.587 5.8 5.8 0 0 0 0-7.264 1.476 1.476 0 0 0-2.308 1.839 2.865 2.865 0 0 1 0 3.587 5.8 5.8 0 0 0 0 7.263zm-18.6 29.456v-2.159a1.475 1.475 0 0 0-2.951 0v2.159a1.475 1.475 0 0 0 2.951 0zm-21.8-12.2a7.26 7.26 0 1 0-5.951 3.1 7.29 7.29 0 0 0 1.264-.111 7.212 7.212 0 0 0 4.687-2.994zm-2.417-1.692a4.282 4.282 0 0 1-2.782 1.77 4.31 4.31 0 1 1 2.782-1.772zM11.48 99.313a7.26 7.26 0 1 0 5.89-8.413 7.272 7.272 0 0 0-5.89 8.413zm6.4-5.5a4.31 4.31 0 1 1-3.5 4.993 4.315 4.315 0 0 1 3.502-4.998zm59.73 3.565v-2.654a2.473 2.473 0 0 0-2.47-2.47h-5.3a2.473 2.473 0 0 0-2.47 2.47v2.649a5.119 5.119 0 0 0 10.238 0zm-7.287 0v-2.173h4.336v2.168a2.168 2.168 0 0 1-4.336 0zm28.808 7.788a2.951 2.951 0 0 0 1.59-2.611V84.339a8.356 8.356 0 0 0-8.347-8.347H78.247a2.934 2.934 0 0 0-2.94 2.946 6.306 6.306 0 0 1-.045.793 6.229 6.229 0 0 1-5.78 5.415 6.178 6.178 0 0 1-6.529-6.18 2.962 2.962 0 0 0-.868-2.114 2.909 2.909 0 0 0-2.072-.859H58.66A2.932 2.932 0 0 0 55.27 74l-.122.023a4.31 4.31 0 0 1-2.154-8.319 4.464 4.464 0 0 1 .783-.189 2.937 2.937 0 0 0 2.462-3.415l-.509-2.89a8.347 8.347 0 0 0-9.67-6.771l-20.088 3.543a2.932 2.932 0 0 0-2.428 2.942 6.164 6.164 0 0 1-5.011 6.14 1.475 1.475 0 1 0 .556 2.9 9.092 9.092 0 0 0 7.4-9.074l20.088-3.542a5.4 5.4 0 0 1 6.251 4.377l.507 2.877a7.44 7.44 0 0 0-1.283.311 7.255 7.255 0 0 0-1.111 13.25 8.361 8.361 0 0 0-6.674 8.178v16.912a9.133 9.133 0 0 0-9.433 7.5l-18.64 3.287a5.4 5.4 0 0 1-6.251-4.377L3.035 68.5a5.4 5.4 0 0 1 4.377-6.251l1.337-.238a9.124 9.124 0 0 0 2.541 3.8 1.475 1.475 0 1 0 1.963-2.2 6.165 6.165 0 0 1-1.718-2.566 2.933 2.933 0 0 0-3.288-1.934l-1.347.234a8.347 8.347 0 0 0-6.772 9.669l6.905 39.161a8.352 8.352 0 0 0 8.2 6.9 8.445 8.445 0 0 0 1.467-.129l18.645-3.287a2.93 2.93 0 0 0 2.382-2.359 6.179 6.179 0 0 1 6.533-5.092v19.9a8.357 8.357 0 0 0 8.347 8.347h1.795a1.475 1.475 0 1 0 0-2.951h-1.791a5.4 5.4 0 0 1-5.4-5.4V84.339a5.4 5.4 0 0 1 5.4-5.4h7.385s.006.007.006.042a9.168 9.168 0 0 0 2.854 6.63 9.05 9.05 0 0 0 6.788 2.483 9.122 9.122 0 0 0 8.614-9.149h14.118a5.4 5.4 0 0 1 5.4 5.4v18.2a.043.043 0 0 1-.017.014 7.643 7.643 0 0 0 0 13.528.094.094 0 0 0 .014.008v8.005a5.4 5.4 0 0 1-5.4 5.4h-3.25a9.109 9.109 0 0 0-17.979 0h-9.857a1.475 1.475 0 1 0 0 2.951h9.859a2.933 2.933 0 0 0 2.9-2.475 6.164 6.164 0 0 1 12.165 0 2.932 2.932 0 0 0 2.9 2.475h3.26a8.356 8.356 0 0 0 8.347-8.347v-8.026a2.951 2.951 0 0 0-1.59-2.611 4.692 4.692 0 0 1 0-8.307zm-12.374-9.444v-2.159a1.475 1.475 0 0 0-2.951 0v2.159a1.475 1.475 0 0 0 2.951 0z" transform="translate(.001 -52.31)"/></svg>