<svg id="menu" xmlns="http://www.w3.org/2000/svg" viewBox="0 0 100.724 100.72"><defs><style>.cls-4{fill:#333}</style></defs><path id="Tracé_1" data-name="Tracé 1" d="M57.725 9.141a48.318 48.318 0 0 0-26.072 7.6 1.716 1.716 0 0 1-.431 2.018c-1.9 1.816-2.8 4.317-4.446 6.336a22.178 22.178 0 0 1-7.189 5.21 1.874 1.874 0 0 1-1.915-.058A48.56 48.56 0 1 0 57.725 9.141z" transform="translate(-7.363 -7.345)" fill="#b37764"/><path id="Tracé_2" data-name="Tracé 2" d="M50.669 9.141c-.694 0-1.382.023-2.068.052-1.6 3.269-5.2 4.015-8.58 4.188-1.254.064-3.266-.141-5.206-.083a1.973 1.973 0 0 1-.456 1.415 7.559 7.559 0 0 1-3.011 2.09 1.985 1.985 0 0 1-.83 1.662 46.364 46.364 0 0 1-4.154 2.654 1.831 1.831 0 0 1-.4 1.988 3.751 3.751 0 0 0-.849 2.139 1.96 1.96 0 0 1-2.394 1.359 1.745 1.745 0 0 1-.944-.664 11.65 11.65 0 0 0-1.954 2.168c-.629 1-.748 2.249-1.629 3.117a2.277 2.277 0 0 1-3.366.071c-2.414 3.091-3.471 8.58-4.729 11.89q-.863 2.269-1.781 4.508c.146 3.453-1.014 6.671-1.119 10.159a1.878 1.878 0 0 1-.1.425c1.373 7.5 2.553 14.562 7.459 21.451 2.582 3.625 3.871 7.478 6.162 11.194 2.791 4.528 7.962 6.683 12.195 9.616a1.949 1.949 0 0 1 .87 1.337c1.959 1 3.958 1.925 5.875 3.01a2.1 2.1 0 0 1 .184.129A48.55 48.55 0 1 0 50.669 9.141z" transform="translate(-5.703 -7.345)" fill="#f3c97f"/><path id="Tracé_3" data-name="Tracé 3" d="M58.607 113.689c.906 0 1.8-.029 2.7-.078-25.565-1.4-46.764-20.849-46.764-46.764a48.562 48.562 0 0 1 45.863-48.485 49.256 49.256 0 0 0-2.7-.078A48.563 48.563 0 0 0 9.145 66.847c0 26.82 22.641 46.842 49.462 46.842z" transform="translate(-7.346 -14.689)" fill="#fff"/><g id="Groupe_1" data-name="Groupe 1"><path id="Tracé_4" data-name="Tracé 4" class="cls-4" d="M182.11 149.88h-43.167a1.8 1.8 0 1 1 0-3.6h43.167a1.8 1.8 0 0 1 0 3.6z" transform="translate(-110.165 -117.508)"/><path id="Tracé_5" data-name="Tracé 5" class="cls-4" d="M182.11 250.452h-43.167a1.8 1.8 0 1 1 0-3.6h43.167a1.8 1.8 0 0 1 0 3.6z" transform="translate(-110.165 -198.295)"/><path id="Tracé_6" data-name="Tracé 6" class="cls-4" d="M182.11 351.023h-43.167a1.8 1.8 0 0 1 0-3.6h43.167a1.8 1.8 0 0 1 0 3.6z" transform="translate(-110.165 -279.081)"/><path id="Tracé_7" data-name="Tracé 7" class="cls-4" d="M50.362 181.492a50.366 50.366 0 0 1-40.569-80.207 1.8 1.8 0 1 1 2.895 2.134 46.767 46.767 0 0 0 69.091 62.352 1.8 1.8 0 1 1 2.417 2.664 50.243 50.243 0 0 1-33.833 13.057z" transform="translate(0 -80.772)"/><path id="Tracé_8" data-name="Tracé 8" class="cls-4" d="M175.2 77.35a1.8 1.8 0 0 1-1.535-2.732 46.771 46.771 0 0 0-67.111-62.352 1.8 1.8 0 1 1-2.087-2.93 50.368 50.368 0 0 1 72.271 67.149 1.8 1.8 0 0 1-1.539.865z" transform="translate(-83.312 -.011)"/><ellipse id="Ellipse_1" data-name="Ellipse 1" class="cls-4" cx="1.799" cy="1.799" rx="1.799" ry="1.799" transform="translate(14.389 14.386)"/><ellipse id="Ellipse_2" data-name="Ellipse 2" class="cls-4" cx="1.799" cy="1.799" rx="1.799" ry="1.799" transform="translate(86.334 79.136)"/></g></svg>